<svg width="36" height="36" viewBox="0 0 36 36" fill="none" xmlns="http://www.w3.org/2000/svg">
<path d="M14.52 20.535L18 17.895L21.465 20.535L20.145 16.26L23.625 13.5H19.365L18 9.285L16.635 13.5H12.375L15.84 16.26L14.52 20.535ZM30 15C30 8.37 24.63 3 18 3C11.37 3 6 8.37 6 15C6 18.045 7.14 20.805 9 22.92V34.5L18 31.5L27 34.5V22.92C28.9341 20.7353 30.0013 17.9179 30 15ZM18 6C22.965 6 27 10.035 27 15C27 19.965 22.965 24 18 24C13.035 24 9 19.965 9 15C9 10.035 13.035 6 18 6ZM18 28.5L12 30.03V25.38C13.77 26.4 15.81 27 18 27C20.19 27 22.23 26.4 24 25.38V30.03L18 28.5Z" fill="#FFCC00"/>
</svg>
